<?xml version="1.0" standalone="no"?>
<!DOCTYPE svg PUBLIC "-//W3C//DTD SVG 20010904//EN"
 "http://www.w3.org/TR/2001/REC-SVG-20010904/DTD/svg10.dtd">
<svg version="1.0" xmlns="http://www.w3.org/2000/svg"
 width="260.000000pt" height="260.000000pt" viewBox="0 0 260.000000 260.000000"
 preserveAspectRatio="xMidYMid meet">
<metadata>
Created by potrace 1.11, written by Peter Selinger 2001-2013
</metadata>
<g transform="translate(0.000000,260.000000) scale(0.100000,-0.100000)"
fill="#000000" stroke="none">
<path d="M726 2226 c-21 -21 -21 -27 -21 -399 0 -208 -3 -381 -7 -383 -4 -3
-93 -5 -199 -5 -185 0 -192 -1 -214 -23 l-22 -22 0 -503 0 -502 23 -18 c23
-18 70 -19 1013 -19 964 -1 990 -1 1014 18 l25 20 -1 505 0 506 -26 20 c-22
17 -39 20 -130 19 -59 -1 -145 -1 -193 -1 l-86 1 0 368 c0 202 -1 374 -1 383
-1 8 -10 25 -20 36 -19 20 -26 21 -577 21 -556 0 -557 0 -578 -22z m1121 -30
c6 -6 6 -1786 0 -1792 -3 -4 -232 -7 -317 -5 l-25 1 0 208 0 207 -200 0 -200
0 -2 -180 c-1 -99 -2 -193 -2 -210 l-1 -30 -162 2 c-89 1 -166 4 -172 6 -8 3
-11 258 -11 898 l0 894 40 5 c51 6 1046 3 1052 -4z m-1150 -1304 l1 -492 -31
-1 c-135 -2 -339 1 -347 6 -9 5 -12 963 -3 978 2 4 88 6 191 5 l187 -3 2 -493z
m1588 3 l0 -490 -191 -2 -192 -3 0 488 c0 268 2 490 5 495 2 4 88 6 191 5
l187 -3 0 -490z m-834 -132 c6 -34 2 -363 -3 -364 -5 0 -37 0 -73 0 -36 0
-101 0 -145 0 l-79 1 0 185 0 185 150 0 c82 0 150 -3 150 -7z"/>
<path d="M925 1928 l0 -143 148 -3 147 -3 0 146 0 145 -148 0 -148 0 1 -142z
m245 -3 l0 -95 -99 0 -99 0 1 95 2 95 98 0 97 0 0 -95z"/>
<path d="M1390 1925 l0 -145 145 0 c131 0 145 2 146 18 0 9 2 74 2 145 l2 127
-147 0 -148 0 0 -145z m245 15 c1 -117 7 -110 -101 -110 -107 0 -95 -14 -95
115 0 36 0 67 0 70 1 3 45 4 98 3 l97 -3 1 -75z"/>
<path d="M955 1650 l-31 -5 2 -135 c1 -74 2 -138 3 -141 0 -3 66 -6 146 -6
l145 0 0 143 0 144 -27 1 c-103 4 -213 3 -238 -1z m208 -49 c4 -1 7 -44 7 -96
l0 -95 -94 0 c-66 0 -95 4 -99 13 -3 10 -2 181 2 182 2 1 176 -3 184 -4z"/>
<path d="M1394 1651 c-2 -2 -4 -68 -4 -147 l0 -142 133 0 c72 0 139 2 147 4
12 3 15 27 14 139 -1 75 -4 139 -8 142 -7 7 -275 11 -282 4z m236 -59 c4 -10
5 -121 1 -169 -1 -9 -29 -12 -96 -12 -94 0 -95 0 -96 24 -3 109 -1 158 9 164
20 12 177 7 182 -7z"/>
<path d="M925 1095 c0 -91 3 -145 10 -146 12 -1 243 -1 268 0 15 1 17 15 17
146 l0 145 -148 0 -147 0 0 -145z m243 -2 l-3 -97 -95 0 -95 -1 -1 98 0 97 98
0 99 0 -3 -97z"/>
<path d="M1390 1093 l0 -148 141 1 c85 1 144 6 148 12 5 8 6 236 2 275 -1 4
-66 7 -146 7 l-145 0 0 -147z m245 7 c0 -47 -1 -90 -2 -95 -3 -11 -178 -13
-189 -2 -3 3 -6 36 -6 74 1 128 -12 114 99 111 l98 -3 0 -85z"/>
<path d="M417 1282 c-15 -3 -17 -18 -17 -103 l0 -99 103 0 102 0 0 100 0 100
-40 1 c-22 0 -61 1 -86 2 -25 1 -53 1 -62 -1z m151 -101 l-3 -66 -65 0 -65 0
0 60 c-1 33 0 63 2 67 2 3 33 6 68 6 l66 -1 -3 -66z"/>
<path d="M403 975 c-2 -7 -3 -52 -1 -101 l3 -89 98 -1 c65 -1 97 2 98 10 1 16
1 125 0 161 l-1 30 -96 0 c-62 1 -98 -3 -101 -10z m166 -87 c-1 -35 -3 -65 -4
-68 -2 -3 -32 -3 -67 0 l-63 5 0 63 -1 62 69 0 68 0 -2 -62z"/>
<path d="M400 590 l0 -100 100 0 100 0 1 35 c0 19 0 55 0 80 0 94 11 85 -101
85 l-100 0 0 -100z m165 0 l0 -65 -65 0 -65 0 -1 60 c0 33 1 63 2 66 2 4 32 6
66 5 l63 -1 0 -65z"/>
<path d="M2030 1282 l-35 -3 2 -82 c1 -45 2 -90 2 -99 1 -16 13 -18 101 -18
l101 0 -3 101 -3 101 -65 1 c-36 1 -81 1 -100 -1z m135 -102 l0 -65 -55 -1
c-79 0 -79 0 -79 71 l1 63 66 -2 67 -1 0 -65z"/>
<path d="M2003 972 c-3 -7 -5 -43 -5 -80 0 -121 -12 -108 102 -109 l101 0 -3
101 -3 101 -94 0 c-68 0 -95 -3 -98 -13z m162 -89 l-1 -67 -32 1 c-18 1 -48 2
-67 2 l-34 1 0 65 1 65 67 0 67 0 -1 -67z"/>
<path d="M1999 665 c0 -14 0 -45 0 -70 0 -25 0 -58 0 -75 l1 -30 100 0 100 0
0 100 0 100 -100 0 c-100 0 -100 0 -101 -25z m166 -75 l0 -65 -67 -1 -68 0 0
61 c0 34 2 64 5 67 3 3 33 4 68 4 l62 -1 0 -65z"/>
</g>
</svg>
